<svg width="32" height="32" viewBox="0 0 32 32" fill="none" xmlns="http://www.w3.org/2000/svg">
<path d="M25.3125 16.0529C23.2448 16.0529 21.5625 17.7341 21.5625 19.8006C21.5625 21.8671 23.2448 23.5484 25.3125 23.5484H30.625C30.6462 23.5484 30.6669 23.5463 30.6878 23.5452C30.7086 23.5462 30.729 23.5483 30.75 23.5483C31.4404 23.5483 32 22.989 32 22.2991V12.4925C32 10.8294 31.1821 9.35433 29.9278 8.44557L25.6753 1.47353C25.5019 1.1892 25.2221 0.985824 24.898 0.908621C24.5739 0.831293 24.2324 0.886572 23.9492 1.06209L20.8131 3.00567L19.3989 0.613737C19.2288 0.326161 18.9507 0.118661 18.6265 0.03746C18.3024 -0.0437409 17.9591 0.00829015 17.6735 0.181685L5.63181 7.49551H3.75C3.07119 7.49551 2.517 6.95197 2.50038 6.2775C2.517 5.60303 3.07119 5.05949 3.75 5.05949H6.0625C6.75287 5.05949 7.3125 4.5002 7.3125 3.81024C7.3125 3.12028 6.75287 2.561 6.0625 2.561H3.75C1.98137 2.561 0.494938 3.79113 0.101875 5.44019C0.0365 5.59173 0 5.7585 0 5.93396V6.24627V6.30873V26.9837C0 29.7391 2.243 31.9807 5 31.9807H27C29.1556 31.9807 31.0621 30.6084 31.7438 28.5658C31.9623 27.9114 31.6085 27.2038 30.9536 26.9855C30.2988 26.7672 29.5907 27.1207 29.3723 27.7752C29.0315 28.7962 28.0782 29.4822 27 29.4822H5C3.6215 29.4822 2.5 28.3614 2.5 26.9837V9.7797C2.89119 9.91836 3.31187 9.99401 3.75 9.99401H27C28.3785 9.99401 29.5 11.1148 29.5 12.4925V16.0529H25.3125ZM29.5 21.0498H25.3125C24.6232 21.0499 24.0625 20.4895 24.0625 19.8006C24.0625 19.1117 24.6232 18.5513 25.3125 18.5513H29.5V21.0498ZM10.4455 7.49558L17.8904 2.97375L19.2215 5.22495C19.2471 5.28648 19.2764 5.34713 19.3127 5.40559C19.3399 5.44938 19.37 5.49016 19.4014 5.52939L20.5639 7.49558H10.4455ZM23.4678 7.49551L22.0853 5.15718L24.1963 3.84891L26.4205 7.49551H23.4678Z" fill="#3B221C"/>
</svg>
