<svg width="24" height="24" viewBox="0 0 24 24" fill="none" xmlns="http://www.w3.org/2000/svg">
<g clip-path="url(#clip0)">
<path d="M21.4746 6.31111C20.9775 6.55145 20.7695 7.14923 21.01 7.64575C21.667 9.00211 22 10.4641 22 11.9927C22 17.5033 17.5139 21.9867 12 21.9867C6.48608 21.9867 2 17.5033 2 11.9927C2 6.48215 6.48608 1.99879 12 1.99879C14.2849 1.99879 16.4314 2.74443 18.208 4.15495C18.6389 4.49874 19.269 4.42676 19.613 3.99465C19.957 3.56278 19.885 2.93377 19.4524 2.59047C17.3491 0.919852 14.7024 0 12 0C5.38354 0 0 5.38028 0 11.9927C0 18.6052 5.38354 23.9854 12 23.9854C18.6165 23.9854 24 18.6052 24 11.9927C24 10.1603 23.5996 8.40432 22.8101 6.77543C22.5701 6.27769 21.97 6.07029 21.4746 6.31111Z" fill="#3B221C"/>
<path d="M12 3.99756C11.448 3.99756 11 4.44529 11 4.99695V11.9927C11 12.5444 11.448 12.9921 12 12.9921H17C17.552 12.9921 18 12.5444 18 11.9927C18 11.441 17.552 10.9933 17 10.9933H13V4.99695C13 4.44529 12.552 3.99756 12 3.99756Z" fill="#3B221C"/>
</g>
<defs>
<clipPath id="clip0">
<rect width="24" height="23.9854" fill="white"/>
</clipPath>
</defs>
</svg>
