<svg width="24" height="24" viewBox="0 0 24 24" fill="none" xmlns="http://www.w3.org/2000/svg">
<g clip-path="url(#clip0)">
<path d="M24.9396 20.5526C24.8341 20.0461 24.3377 19.7209 23.8307 19.8264C23.3238 19.9318 22.9984 20.428 23.104 20.9346C23.1648 21.2264 23.0924 21.5254 22.9054 21.7553C22.7972 21.8884 22.5557 22.1116 22.1555 22.1116H3.84545C3.44524 22.1116 3.20378 21.8883 3.0955 21.7553C2.90852 21.5255 2.83614 21.2264 2.89694 20.9346C3.86988 16.2642 7.99183 12.8525 12.7519 12.7375C12.8344 12.7407 12.9172 12.7423 13.0005 12.7423C13.084 12.7423 13.1672 12.7406 13.2499 12.7374C16.603 12.8178 19.7022 14.5151 21.579 17.3125C21.8673 17.7423 22.4497 17.8571 22.8798 17.5689C23.3098 17.2808 23.4247 16.6987 23.1363 16.269C21.598 13.9761 19.3643 12.3088 16.8174 11.4711C18.3694 10.3079 19.3755 8.45473 19.3755 6.37113C19.3755 2.85811 16.5157 0 13.0005 0C9.48527 0 6.62547 2.85811 6.62547 6.37113C6.62547 8.45599 7.63272 10.3102 9.18639 11.4732C7.76289 11.9416 6.42719 12.6704 5.25813 13.6314C3.11444 15.3936 1.62395 17.8516 1.06131 20.5526C0.88497 21.399 1.09624 22.2683 1.64083 22.9375C2.18275 23.6035 2.98633 23.9854 3.84545 23.9854H22.1554C23.0146 23.9854 23.8182 23.6035 24.3601 22.9375C24.9047 22.2683 25.116 21.399 24.9396 20.5526ZM8.50047 6.37113C8.50047 3.89131 10.5191 1.87386 13.0005 1.87386C15.4818 1.87386 17.5005 3.89131 17.5005 6.37113C17.5005 8.7746 15.6041 10.7437 13.2282 10.8627C13.1524 10.8613 13.0765 10.8606 13.0005 10.8606C12.9248 10.8606 12.8492 10.8613 12.7736 10.8627C10.3973 10.7443 8.50047 8.77493 8.50047 6.37113Z" fill="#3B221C"/>
</g>
<defs>
<clipPath id="clip0">
<rect width="24" height="23.9854" fill="white"/>
</clipPath>
</defs>
</svg>
