<svg width="24" height="24" viewBox="0 0 24 24" fill="none" xmlns="http://www.w3.org/2000/svg">
<path d="M10.9908 22.0709H2.83555C2.53254 22.0709 2.25644 21.9308 2.07792 21.6865C1.89935 21.442 1.85018 21.1367 1.94297 20.8487C2.86949 17.9748 5.69509 15.9677 8.81425 15.9677C10.2656 15.9677 11.6593 16.4037 12.8448 17.2286C13.2694 17.5241 13.8537 17.4202 14.1499 16.9966C14.446 16.573 14.3419 15.99 13.9173 15.6945C13.3305 15.2862 12.7035 14.9531 12.0477 14.6987C12.9203 13.9072 13.4991 12.7989 13.5997 11.5578C14.9228 10.2719 16.657 9.56734 18.5161 9.56734C19.9675 9.56734 21.3612 10.0034 22.5467 10.8283C22.9713 11.1237 23.5556 11.0199 23.8518 10.5962C24.1479 10.1726 24.0438 9.58968 23.6192 9.29417C23.0324 8.88581 22.4054 8.55269 21.7496 8.29836C22.7121 7.42523 23.3173 6.16656 23.3173 4.7695C23.3173 2.13962 21.1727 0 18.5367 0C15.9006 0 13.756 2.13962 13.756 4.76959C13.756 6.16098 14.3563 7.41516 15.3121 8.28786C15.1813 8.33808 15.0515 8.39149 14.9226 8.44808C14.336 8.70559 13.7843 9.02171 13.2715 9.39358C12.564 7.64082 10.8418 6.40041 8.83472 6.40041C6.19864 6.40041 4.05409 8.54004 4.05409 11.17C4.05409 12.5573 4.65089 13.8082 5.60174 14.6806C3.05919 15.6312 0.997613 17.6727 0.158331 20.2761C-0.120022 21.1396 0.0274186 22.0552 0.562899 22.7882C1.09829 23.5211 1.92658 23.9415 2.83559 23.9415H10.9908C11.5086 23.9415 11.9282 23.5227 11.9282 23.0063C11.9282 22.4898 11.5085 22.0709 10.9908 22.0709ZM18.5367 1.8704C20.139 1.8704 21.4426 3.17095 21.4426 4.76954C21.4426 6.36814 20.139 7.66869 18.5367 7.66869C16.9344 7.66869 15.6308 6.36814 15.6308 4.76954C15.6308 3.17095 16.9344 1.8704 18.5367 1.8704ZM8.83477 8.27076C10.4371 8.27076 11.7407 9.57132 11.7407 11.1699C11.7407 12.7685 10.4371 14.0691 8.83477 14.0691C7.23246 14.0691 5.92888 12.7685 5.92888 11.1699C5.92888 9.57132 7.23246 8.27076 8.83477 8.27076Z" fill="#3B221C"/>
<path d="M23.6287 15.2757C23.2077 14.975 22.6221 15.0717 22.3208 15.4917L17.7004 21.9306C17.5742 22.0766 17.4161 22.1081 17.3313 22.1138C17.2442 22.1197 17.0748 22.1084 16.9296 21.9706L13.9384 19.1051C13.5649 18.7472 12.9715 18.7594 12.6131 19.1319C12.2545 19.5044 12.2665 20.0965 12.6399 20.4542L15.6341 23.3225C16.0826 23.7484 16.6812 23.9853 17.297 23.9853C17.3499 23.9853 17.403 23.9836 17.4561 23.98C18.127 23.9354 18.7534 23.6099 19.1746 23.087C19.1855 23.0735 19.196 23.0597 19.2061 23.0456L23.8453 16.5805C24.1466 16.1605 24.0497 15.5764 23.6287 15.2757Z" fill="#3B221C"/>
</svg>
