<svg width="24" height="24" viewBox="0 0 24 24" fill="none" xmlns="http://www.w3.org/2000/svg">
<g clip-path="url(#clip0)">
<path d="M21.1875 5.62159H18.3307C17.9582 2.46048 15.2614 0 12 0C8.73858 0 6.04177 2.46048 5.66934 5.62159H2.8125C2.29472 5.62159 1.875 6.04105 1.875 6.55852V23.0485C1.875 23.566 2.29472 23.9854 2.8125 23.9854H21.1875C21.7053 23.9854 22.125 23.566 22.125 23.0485V6.55852C22.125 6.04105 21.7053 5.62159 21.1875 5.62159ZM12 1.87386C14.2258 1.87386 16.079 3.49733 16.4371 5.62159H7.56286C7.92098 3.49733 9.77419 1.87386 12 1.87386ZM20.25 22.1116H3.75V7.49545H5.625V10.3062C5.625 10.8237 6.04472 11.2432 6.5625 11.2432C7.08028 11.2432 7.5 10.8237 7.5 10.3062V7.49545H16.5V10.3062C16.5 10.8237 16.9197 11.2432 17.4375 11.2432C17.9553 11.2432 18.375 10.8237 18.375 10.3062V7.49545H20.25V22.1116Z" fill="#3B221C"/>
</g>
<defs>
<clipPath id="clip0">
<rect width="24" height="23.9854" fill="white"/>
</clipPath>
</defs>
</svg>
