<svg width="32" height="33" viewBox="0 0 32 33" fill="none" xmlns="http://www.w3.org/2000/svg">
<g clip-path="url(#clip0)">
<path d="M16 5.01465C11.6922 5.01465 8.1875 8.5295 8.1875 12.8498C8.1875 17.1701 11.6922 20.685 16 20.685C16.7276 20.685 17.4484 20.5845 18.1426 20.3863C18.8066 20.1968 19.1916 19.5033 19.0027 18.8374C18.8136 18.1715 18.1222 17.7853 17.4582 17.9749C16.9867 18.1095 16.4961 18.1777 16 18.1777C13.0707 18.1777 10.6875 15.7876 10.6875 12.8498C10.6875 9.912 13.0707 7.5219 16 7.5219C18.9293 7.5219 21.3125 9.912 21.3125 12.8498C21.3125 13.3725 21.2375 13.8884 21.0896 14.3832C20.8913 15.0464 21.2666 15.7452 21.9278 15.9441C22.5891 16.1428 23.2858 15.7666 23.4842 15.1034C23.702 14.3748 23.8125 13.6167 23.8125 12.8498C23.8125 8.5295 20.3078 5.01465 16 5.01465Z" fill="#3B221C"/>
<path d="M25.0547 3.75862C22.6354 1.33486 19.4196 0 15.9999 0C12.5802 0 9.3645 1.33486 6.94512 3.75868C4.526 6.18232 3.19156 9.40552 3.18762 12.8373C3.19006 15.3355 3.88193 17.6793 5.30268 20.0027C6.533 22.0146 8.13131 23.7701 9.82343 25.6286C11.4826 27.4508 13.1982 29.3351 14.5683 31.509C14.7974 31.8724 15.1962 32.0928 15.6249 32.0928H16.3749C16.8036 32.0928 17.2025 31.8724 17.4316 31.5089C18.8017 29.335 20.5172 27.4507 22.1764 25.6285C23.8686 23.7701 25.4669 22.0146 26.6972 20.0027C28.118 17.6792 28.8098 15.3354 28.8122 12.8346C28.8084 9.40545 27.4739 6.18226 25.0547 3.75862ZM20.3303 23.9379C18.8551 25.5582 17.3371 27.2254 15.9999 29.1428C14.6628 27.2254 13.1448 25.5582 11.6696 23.9379C8.46212 20.4152 5.692 17.3727 5.68762 12.8375C5.69412 7.14141 10.3202 2.50725 15.9999 2.50725C21.6796 2.50725 26.3057 7.14141 26.3122 12.8348C26.3079 17.3727 23.5377 20.4151 20.3303 23.9379Z" fill="#3B221C"/>
</g>
<defs>
<clipPath id="clip0">
<rect width="32" height="32.0928" fill="white"/>
</clipPath>
</defs>
</svg>
