<svg width="42" height="35" viewBox="0 0 42 35" fill="none" xmlns="http://www.w3.org/2000/svg">
<path d="M40.3594 20.6778C41.2655 20.6778 42 19.8762 42 18.8875V7.16113C42 3.21248 39.0561 0 35.4375 0H6.5625C2.94394 0 0 3.21248 0 7.16113V27.8389C0 31.7875 2.94394 35 6.5625 35H35.4375C39.0561 35 42 31.7875 42 27.8389C42 26.8501 41.2655 26.0486 40.3594 26.0486C39.4533 26.0486 38.7188 26.8501 38.7188 27.8389C38.7188 29.8132 37.2468 31.4194 35.4375 31.4194H6.5625C4.75322 31.4194 3.28125 29.8132 3.28125 27.8389V7.54049L17.5346 17.212C18.6034 17.9372 19.8017 18.2998 21 18.2998C22.1983 18.2998 23.3966 17.9372 24.4654 17.212L38.7188 7.54049V18.8875C38.7188 19.8762 39.4533 20.6778 40.3594 20.6778ZM22.7327 14.1713C21.664 14.8965 20.336 14.8966 19.2673 14.1713L4.65027 4.25299C5.18905 3.82995 5.84957 3.58056 6.5625 3.58056H35.4375C36.1504 3.58056 36.811 3.83004 37.3497 4.25308L22.7327 14.1713Z" fill="#3B221C"/>
</svg>
