<svg width="32" height="33" viewBox="0 0 32 33" fill="none" xmlns="http://www.w3.org/2000/svg">
<g clip-path="url(#clip0)">
<path d="M27 0H22.25C19.493 0 17.25 2.24951 17.25 5.01452V9.77832C17.25 12.5433 19.493 14.7928 22.25 14.7928H27C29.757 14.7928 32 12.5433 32 9.77832V5.01452C32 2.24951 29.757 0 27 0ZM29.5 9.77832C29.5 11.1608 28.3785 12.2856 27 12.2856H22.25C20.8715 12.2856 19.75 11.1608 19.75 9.77832V5.01452C19.75 3.63202 20.8715 2.50726 22.25 2.50726H27C28.3785 2.50726 29.5 3.63202 29.5 5.01452V9.77832Z" fill="#3B221C"/>
<path d="M9.75 0H5C2.243 0 0 2.24951 0 5.01452V9.77832C0 12.5433 2.243 14.7928 5 14.7928H9.75C12.507 14.7928 14.75 12.5433 14.75 9.77832V5.01452C14.75 2.24951 12.507 0 9.75 0ZM12.25 9.77832C12.25 11.1608 11.1285 12.2856 9.75 12.2856H5C3.6215 12.2856 2.5 11.1608 2.5 9.77832V5.01452C2.5 3.63202 3.6215 2.50726 5 2.50726H9.75C11.1285 2.50726 12.25 3.63202 12.25 5.01452V9.77832Z" fill="#3B221C"/>
<path d="M9.75 17.3003H5C2.243 17.3003 0 19.5498 0 22.3148V27.0786C0 29.8436 2.243 32.0931 5 32.0931H9.75C12.507 32.0931 14.75 29.8436 14.75 27.0786V22.3148C14.75 19.5498 12.507 17.3003 9.75 17.3003ZM12.25 27.0786C12.25 28.4611 11.1285 29.5859 9.75 29.5859H5C3.6215 29.5859 2.5 28.4611 2.5 27.0786V22.3148C2.5 20.9323 3.6215 19.8076 5 19.8076H9.75C11.1285 19.8076 12.25 20.9323 12.25 22.3148V27.0786Z" fill="#3B221C"/>
<path d="M30.75 25.825C30.0596 25.825 29.5 26.3862 29.5 27.0786C29.5 28.4611 28.3785 29.5859 27 29.5859H22.25C20.8715 29.5859 19.75 28.4611 19.75 27.0786V22.3148C19.75 20.9323 20.8715 19.8076 22.25 19.8076H27C27.9941 19.8076 28.8938 20.398 29.2922 21.3117C29.5687 21.9461 30.3058 22.2353 30.9383 21.958C31.5709 21.6806 31.8594 20.9415 31.5828 20.3071C30.7864 18.4805 28.9875 17.3003 27 17.3003H22.25C19.493 17.3003 17.25 19.5498 17.25 22.3148V27.0786C17.25 29.8436 19.493 32.0931 22.25 32.0931H27C29.757 32.0931 32 29.8436 32 27.0786C32 26.3862 31.4404 25.825 30.75 25.825Z" fill="#3B221C"/>
</g>
<defs>
<clipPath id="clip0">
<rect width="32" height="32.0929" fill="white"/>
</clipPath>
</defs>
</svg>
