<svg width="42" height="43" viewBox="0 0 42 43" fill="none" xmlns="http://www.w3.org/2000/svg">
<path d="M37.6248 30.2647C37.6248 29.0397 37.0998 27.8147 36.0498 26.9397C34.2998 25.1897 32.7248 24.1397 31.3248 23.7897C29.3998 23.2647 27.4748 23.7897 25.8998 25.3647L24.1498 27.1147C23.0998 26.5897 20.9998 25.1897 18.5498 22.9147L18.3748 22.7397C16.0998 20.4647 14.6998 18.3647 14.1748 17.1397L15.9248 15.3897C17.4998 13.8147 18.0248 11.8897 17.4998 9.96475C17.1498 8.38975 16.0998 6.81475 14.3498 5.06475C13.4748 4.18975 12.2498 3.48975 10.8498 3.48975C9.6248 3.48975 8.3998 3.83975 7.3498 4.71475C5.4248 6.81475 4.5498 9.43975 4.5498 12.5897C4.5498 17.8397 7.5248 23.9647 12.4248 28.8647C13.2998 29.7397 14.3498 30.6147 15.5748 31.4897C16.0998 31.8397 16.9748 31.8397 17.3248 31.3147C17.6748 30.7897 17.6748 29.9147 17.1498 29.5647C16.0998 28.6897 15.2248 27.9897 14.3498 27.1147C9.9748 22.7397 7.3498 17.3147 7.3498 12.5897C7.3498 10.1397 8.0498 8.21475 9.4498 6.81475C10.3248 5.93975 11.8998 5.93975 12.7748 6.98975C15.7498 10.3147 15.5748 11.8897 13.9998 13.4647L11.7248 15.9147C11.3748 16.2647 11.1998 16.7897 11.3748 17.3147C11.3748 17.4897 12.9498 20.6397 16.6248 24.3147L16.7998 24.4897C20.4748 28.1647 23.7998 29.5647 23.7998 29.7397C24.3248 29.9147 24.8498 29.9147 25.1998 29.3897L27.6498 26.9397C29.2248 25.5397 30.7998 25.1897 34.2998 28.5147C35.1748 29.3897 35.3498 30.7897 34.4748 31.8397C33.0748 33.2397 31.1498 33.9397 28.6998 33.9397C26.7748 33.9397 24.4998 33.4147 22.2248 32.3647C21.5248 32.0147 20.8248 32.3647 20.4748 33.0647C20.1248 33.7647 20.4748 34.4647 21.1748 34.8147C23.7998 35.8647 26.2498 36.5647 28.5248 36.5647C31.6748 36.5647 34.2998 35.5147 36.2248 33.7647C37.2748 32.7147 37.7998 31.4897 37.6248 30.2647Z" fill="#3B221C"/>
</svg>
