<svg width="24" height="24" viewBox="0 0 24 24" fill="none" xmlns="http://www.w3.org/2000/svg">
<g clip-path="url(#clip0)">
<path d="M20.3808 16.0672L20.143 15.6787C19.6782 14.9194 19.1156 14.2232 18.471 13.6094L17.6757 12.8521C17.6002 12.7801 17.5888 12.6659 17.6488 12.5804L18.7346 11.0332C18.8912 10.81 19.0357 10.575 19.1641 10.3348L20.092 8.59866C20.2537 8.29613 20.245 7.93973 20.0688 7.64536C19.8926 7.35103 19.5826 7.17502 19.2395 7.17464L17.2312 7.17234C17.2308 7.17234 17.2304 7.17234 17.23 7.17234C16.8092 7.17234 16.4282 7.4212 16.2591 7.80652L16.0464 8.2912C15.5036 9.52781 14.7628 10.6553 13.8438 11.6439V8.10548C13.8438 7.5907 13.425 7.17188 12.9102 7.17188H10.0658C9.59875 7.17188 9.21883 7.55184 9.21883 8.01891C9.21883 8.19727 9.27381 8.36813 9.37778 8.51288L9.57681 8.79014C9.77196 9.06187 9.87508 9.38236 9.87508 9.71695V12.3025C9.52431 11.8951 9.09724 11.3419 8.73569 10.7059C8.18205 9.73181 7.7852 8.59598 7.59794 8.00559C7.43974 7.50694 6.98205 7.17188 6.45897 7.17188H4.42488C4.13781 7.17188 3.87381 7.30313 3.70038 7.53197C3.52708 7.76086 3.47228 8.05064 3.55014 8.32706L3.9296 9.67378C4.16214 10.4993 4.48183 11.3029 4.87975 12.0624C4.99985 12.2917 5.28306 12.3802 5.51247 12.2601C5.74183 12.1399 5.83028 11.8566 5.71014 11.6273C5.34241 10.9253 5.04696 10.1826 4.83199 9.41958L4.46285 8.10938H6.45902C6.57166 8.10938 6.67024 8.18156 6.70431 8.28905C6.90274 8.9145 7.32461 10.1205 7.92072 11.1691C8.40981 12.0295 9.00321 12.7463 9.41496 13.1962C9.64052 13.4426 9.98758 13.5237 10.2991 13.4026C10.611 13.2814 10.8126 12.9869 10.8126 12.6524V9.71695C10.8126 9.18497 10.6486 8.67539 10.3384 8.24334L10.2422 8.10938H12.9063V11.8685C12.9063 12.1435 13.0444 12.3964 13.2757 12.5451C13.507 12.6938 13.7944 12.7144 14.0446 12.6002L14.2379 12.512C14.3269 12.4714 14.406 12.4147 14.4731 12.3435C15.4904 11.2632 16.3085 10.0266 16.9049 8.66789L17.1176 8.1832C17.1371 8.13858 17.1813 8.1098 17.23 8.1098H17.2301L19.2385 8.11209C19.2453 8.11209 19.2557 8.11214 19.2645 8.12686C19.2733 8.14163 19.2684 8.15072 19.2652 8.15677L18.3374 9.89283C18.2267 10.0999 18.1022 10.3023 17.9673 10.4946L16.8814 12.0419C16.5528 12.5102 16.615 13.1365 17.0293 13.5311L17.8245 14.2883C18.4101 14.846 18.9212 15.4785 19.3435 16.1682L19.5813 16.5567C19.5871 16.566 19.6045 16.5945 19.5828 16.6332C19.5611 16.6718 19.5278 16.6718 19.5168 16.6718H17.783C17.5602 16.6718 17.3433 16.5802 17.188 16.4205L15.4543 14.6379C15.0458 14.2178 14.5273 13.9293 13.9549 13.8037C13.6983 13.7473 13.4335 13.8094 13.2287 13.9741C13.0238 14.1389 12.9063 14.3841 12.9063 14.6469V16.3985C12.9063 16.5492 12.7837 16.6719 12.6329 16.6719C11.2894 16.6719 9.96175 16.2224 8.89455 15.4061C8.46461 15.0773 8.05455 14.7146 7.67575 14.3283C7.49453 14.1435 7.19777 14.1405 7.01285 14.3217C6.82797 14.503 6.82506 14.7998 7.00628 14.9846C7.41611 15.4027 7.85978 15.795 8.32497 16.1508C9.55474 17.0914 11.0846 17.6094 12.6329 17.6094C13.3006 17.6094 13.8438 17.0662 13.8438 16.3985V14.7413C14.2008 14.8365 14.5236 15.0256 14.7822 15.2916L16.516 17.0742C16.8467 17.4143 17.3085 17.6094 17.783 17.6094H19.5168C19.8831 17.6094 20.2218 17.4109 20.4007 17.0914C20.5796 16.772 20.572 16.3795 20.3808 16.0672Z" fill="#FFE4DB"/>
<path d="M20.9062 0H3.09375C1.38783 0 0 1.38783 0 3.09375V20.9062C0 22.6122 1.38783 24 3.09375 24H20.9062C22.6122 24 24 22.6122 24 20.9062V3.09375C24 1.38783 22.6122 0 20.9062 0ZM23.0625 20.9062C23.0625 22.0952 22.0952 23.0625 20.9062 23.0625H3.09375C1.90481 23.0625 0.9375 22.0952 0.9375 20.9062V3.09375C0.9375 1.90481 1.90481 0.9375 3.09375 0.9375H20.9062C22.0952 0.9375 23.0625 1.90481 23.0625 3.09375V20.9062Z" fill="#FFE4DB" stroke="#FFE4DB" stroke-width="0.5" stroke-linejoin="round"/>
</g>
<defs>
<clipPath id="clip0">
<rect width="24" height="24" fill="white"/>
</clipPath>
</defs>
</svg>
